<?xml version="1.0" encoding="UTF-8" standalone="no"?>
<!DOCTYPE svg PUBLIC "-//W3C//DTD SVG 1.1//EN" "http://www.w3.org/Graphics/SVG/1.1/DTD/svg11.dtd">
<!-- Generated by graphviz version 9.0.0 (0)
 -->
<!-- Pages: 1 -->
<svg width="566pt" height="110pt" viewBox="0.00 0.00 565.52 110.01" xmlns="http://www.w3.org/2000/svg"
  xmlns:xlink="http://www.w3.org/1999/xlink">
  <g id="graph0" class="graph" transform="scale(1 1) rotate(0) translate(4 106.01)">
    <polygon fill="white" stroke="none" points="-4,4 -4,-106.01 561.52,-106.01 561.52,4 -4,4" />
    <!-- S -->
    <g id="node1" class="node">
      <title>S</title>
      <ellipse fill="none" stroke="black" cx="118" cy="-40.51" rx="27" ry="18" />
      <text text-anchor="middle" x="118" y="-35.46" font-family="Times,serif" font-size="14.00">S</text>
    </g>
    <!-- B -->
    <g id="node2" class="node">
      <title>B</title>
      <ellipse fill="none" stroke="black" cx="214.75" cy="-40.51" rx="27" ry="18" />
      <text text-anchor="middle" x="214.75" y="-35.46" font-family="Times,serif" font-size="14.00">B</text>
    </g>
    <!-- S&#45;&gt;B -->
    <g id="edge2" class="edge">
      <title>S&#45;&gt;B</title>
      <path fill="none" stroke="black" d="M145.39,-40.51C154.94,-40.51 165.91,-40.51 176.23,-40.51" />
      <polygon fill="black" stroke="black" points="175.98,-44.01 185.98,-40.51 175.98,-37.01 175.98,-44.01" />
      <text text-anchor="middle" x="166.37" y="-43.71" font-family="Times,serif" font-size="14.00">a</text>
    </g>
    <!-- B&#45;&gt;S -->
    <g id="edge3" class="edge">
      <title>B&#45;&gt;S</title>
      <path fill="none" stroke="black"
        d="M195.9,-27.48C186.38,-22.04 174.32,-17.5 163,-20.01 158.37,-21.03 153.65,-22.6 149.11,-24.42" />
      <polygon fill="black" stroke="black" points="148.01,-21.07 140.32,-28.36 150.87,-27.46 148.01,-21.07" />
      <text text-anchor="middle" x="166.37" y="-23.71" font-family="Times,serif" font-size="14.00">b</text>
    </g>
    <!-- C -->
    <g id="node3" class="node">
      <title>C</title>
      <ellipse fill="none" stroke="black" cx="310.75" cy="-70.51" rx="27" ry="18" />
      <text text-anchor="middle" x="310.75" y="-65.46" font-family="Times,serif" font-size="14.00">C</text>
    </g>
    <!-- B&#45;&gt;C -->
    <g id="edge4" class="edge">
      <title>B&#45;&gt;C</title>
      <path fill="none" stroke="black" d="M239.47,-48.08C250.27,-51.53 263.26,-55.67 275.12,-59.46" />
      <polygon fill="black" stroke="black" points="274,-62.77 284.6,-62.48 276.13,-56.11 274,-62.77" />
      <text text-anchor="middle" x="262.75" y="-59.71" font-family="Times,serif" font-size="14.00">a</text>
    </g>
    <!-- DEAD -->
    <g id="node5" class="node">
      <title>DEAD</title>
      <ellipse fill="none" stroke="black" cx="517.01" cy="-40.51" rx="36.51" ry="36.51" />
      <ellipse fill="none" stroke="black" cx="517.01" cy="-40.51" rx="40.51" ry="40.51" />
      <text text-anchor="middle" x="517.01" y="-35.46" font-family="Times,serif" font-size="14.00">DEAD</text>
    </g>
    <!-- B&#45;&gt;DEAD -->
    <g id="edge5" class="edge">
      <title>B&#45;&gt;DEAD</title>
      <path fill="none" stroke="black" d="M242.13,-40.51C291.95,-40.51 400.62,-40.51 465.09,-40.51" />
      <polygon fill="black" stroke="black" points="464.69,-44.01 474.69,-40.51 464.69,-37.01 464.69,-44.01" />
      <text text-anchor="middle" x="359.12" y="-43.71" font-family="Times,serif" font-size="14.00">c</text>
    </g>
    <!-- D -->
    <g id="node4" class="node">
      <title>D</title>
      <ellipse fill="none" stroke="black" cx="407.5" cy="-70.51" rx="27" ry="18" />
      <text text-anchor="middle" x="407.5" y="-65.46" font-family="Times,serif" font-size="14.00">D</text>
    </g>
    <!-- C&#45;&gt;D -->
    <g id="edge6" class="edge">
      <title>C&#45;&gt;D</title>
      <path fill="none" stroke="black"
        d="M334.22,-79.75C341.02,-82.11 348.58,-84.32 355.75,-85.51 361.98,-86.54 368.53,-85.94 374.77,-84.5" />
      <polygon fill="black" stroke="black" points="375.56,-87.92 384.09,-81.64 373.5,-81.23 375.56,-87.92" />
      <text text-anchor="middle" x="359.12" y="-88.71" font-family="Times,serif" font-size="14.00">b</text>
    </g>
    <!-- D&#45;&gt;C -->
    <g id="edge8" class="edge">
      <title>D&#45;&gt;C</title>
      <path fill="none" stroke="black"
        d="M380.96,-66.77C374.92,-66.04 368.49,-65.38 362.5,-65.01 358,-64.73 353.29,-64.78 348.62,-65.03" />
      <polygon fill="black" stroke="black" points="348.43,-61.54 338.78,-65.9 349.05,-68.51 348.43,-61.54" />
      <text text-anchor="middle" x="359.12" y="-68.71" font-family="Times,serif" font-size="14.00">a</text>
    </g>
    <!-- D&#45;&gt;DEAD -->
    <g id="edge7" class="edge">
      <title>D&#45;&gt;DEAD</title>
      <path fill="none" stroke="black" d="M432.9,-63.7C443.05,-60.87 455.21,-57.47 467.06,-54.17" />
      <polygon fill="black" stroke="black" points="467.64,-57.64 476.33,-51.58 465.76,-50.9 467.64,-57.64" />
      <text text-anchor="middle" x="455.5" y="-61.71" font-family="Times,serif" font-size="14.00">c</text>
    </g>
    <g id="node6" class="node">
      <title></title>
    </g>
    <!-- &#45;&gt;S -->
    <g id="edge1" class="edge">
      <title>&#45;&gt;S</title>
      <path fill="none" stroke="black" d="M53.74,-40.51C61.72,-40.51 70.68,-40.51 79.29,-40.51" />
      <polygon fill="black" stroke="black" points="79.18,-44.01 89.18,-40.51 79.18,-37.01 79.18,-44.01" />
    </g>
  </g>
</svg>